<?xml version="1.0" encoding="UTF-8"?>
<svg xmlns="http://www.w3.org/2000/svg" id="Layer_1" data-name="Layer 1" viewBox="0 0 512 512">
  <defs>
    <style>.cls-1{fill:#fff}.cls-2{fill:#f7cf19}.cls-3{fill:#245ae0}</style>
  </defs>
  <path d="M256 487A231 231 0 0 1 92.66 92.66a231 231 0 0 1 326.68 326.68A229.49 229.49 0 0 1 256 487Z" class="cls-1"></path>
  <path d="M256 513A256 256 0 0 1 75 76a256 256 0 0 1 362 362 254.33 254.33 0 0 1-181 75Z" class="cls-1"></path>
  <path d="M409.83 393q-4 4.43-8.17 8.66a206 206 0 0 1-291.33 0q-4.23-4.23-8.17-8.66H39.72a256 256 0 0 0 432.56 0ZM97.84 124q5.91-7.06 12.49-13.66a206 206 0 0 1 291.33 0q6.59 6.59 12.49 13.66h61.22a256.06 256.06 0 0 0-438.76 0Z" class="cls-2"></path>
  <path d="M154.78 163.54v39.78H76.07v23.54a181.38 181.38 0 0 1 21.59-1.35c18.69 0 38.17 5.14 51.86 16 11.85 9.47 19.74 23.81 19.74 43.3 0 18.4-7.11 32.47-17.9 41.94-17.9 16-47.91 21.38-76.08 21.38-21.59 0-36.86-1.35-46.33-3V163.54Zm-79 147.21c4.21.81 9.21.81 14 .81a34.35 34.35 0 0 0 21.32-7 25.2 25.2 0 0 0 8.16-18.94 22.11 22.11 0 0 0-7.37-16.78c-6.32-5.41-15.53-7.58-23.43-7.58a108.33 108.33 0 0 0-12.64 1.08ZM219 204.67h-45.26v-41.13h139v41.13h-46.08v141.26H219ZM377.49 163l21.59 60.35c5 13.53 8.42 24.9 12.37 36h.79c1.84-7.31 4.74-20 9.21-36.8L437 163h50l-31.59 88.22c-11.32 30-22.38 57.37-35.8 74.15-11.85 15.15-27.11 24.9-50.28 24.9-10.53 0-16.59-1.35-22.64-3.52l3.16-39.24c3.95 1.08 8.42 1.62 15.27 1.62 9.74 0 17.11-4.33 19.48-10.55a7.9 7.9 0 0 0-.79-7.31L323.79 163Z" class="cls-3"></path>
</svg>
